<?xml version="1.0"?>
<!-- Generated by SVGo and Plotinum VG -->
<svg width="432pt" height="576pt" viewBox="0 0 432 576"
	xmlns="http://www.w3.org/2000/svg"
	xmlns:xlink="http://www.w3.org/1999/xlink">
<g transform="scale(1, -1) translate(0, -576)">
<path d="M0,0L432,0L432,576L0,576Z" style="fill:#FFFFFF" />
<text x="88.459" y="-566.61" transform="scale(1, -1)"
	style="font-family:Liberation Serif;font-variant:normal;font-weight:normal;font-style:normal;font-size:12px">Performance comparison according to Amdahl&#39;s Law</text>
<text x="195.59" y="-3.9023" transform="scale(1, -1)"
	style="font-family:Liberation Serif;font-variant:normal;font-weight:normal;font-style:normal;font-size:12px">Number of Workers</text>
<text x="54.635" y="-16.541" transform="scale(1, -1)"
	style="font-family:Liberation Serif;font-variant:normal;font-weight:normal;font-style:normal;font-size:10px">1</text>
<text x="178.76" y="-16.541" transform="scale(1, -1)"
	style="font-family:Liberation Serif;font-variant:normal;font-weight:normal;font-style:normal;font-size:10px">2</text>
<text x="302.88" y="-16.541" transform="scale(1, -1)"
	style="font-family:Liberation Serif;font-variant:normal;font-weight:normal;font-style:normal;font-size:10px">3</text>
<text x="427" y="-16.541" transform="scale(1, -1)"
	style="font-family:Liberation Serif;font-variant:normal;font-weight:normal;font-style:normal;font-size:10px">4</text>
<path d="M57.135,24.363L57.135,32.363" style="fill:none;stroke:#000000;stroke-width:0.5" />
<path d="M181.26,24.363L181.26,32.363" style="fill:none;stroke:#000000;stroke-width:0.5" />
<path d="M305.38,24.363L305.38,32.363" style="fill:none;stroke:#000000;stroke-width:0.5" />
<path d="M429.5,24.363L429.5,32.363" style="fill:none;stroke:#000000;stroke-width:0.5" />
<path d="M81.959,28.363L81.959,32.363" style="fill:none;stroke:#000000;stroke-width:0.5" />
<path d="M106.78,28.363L106.78,32.363" style="fill:none;stroke:#000000;stroke-width:0.5" />
<path d="M131.61,28.363L131.61,32.363" style="fill:none;stroke:#000000;stroke-width:0.5" />
<path d="M156.43,28.363L156.43,32.363" style="fill:none;stroke:#000000;stroke-width:0.5" />
<path d="M206.08,28.363L206.08,32.363" style="fill:none;stroke:#000000;stroke-width:0.5" />
<path d="M230.91,28.363L230.91,32.363" style="fill:none;stroke:#000000;stroke-width:0.5" />
<path d="M255.73,28.363L255.73,32.363" style="fill:none;stroke:#000000;stroke-width:0.5" />
<path d="M280.55,28.363L280.55,32.363" style="fill:none;stroke:#000000;stroke-width:0.5" />
<path d="M330.2,28.363L330.2,32.363" style="fill:none;stroke:#000000;stroke-width:0.5" />
<path d="M355.03,28.363L355.03,32.363" style="fill:none;stroke:#000000;stroke-width:0.5" />
<path d="M379.85,28.363L379.85,32.363" style="fill:none;stroke:#000000;stroke-width:0.5" />
<path d="M404.68,28.363L404.68,32.363" style="fill:none;stroke:#000000;stroke-width:0.5" />
<path d="M57.135,32.363L429.5,32.363" style="fill:none;stroke:#000000;stroke-width:0.5" />
<g transform="rotate(90)">
<text x="264.52" y="9.3867" transform="scale(1, -1)"
	style="font-family:Liberation Serif;font-variant:normal;font-weight:normal;font-style:normal;font-size:12px">Time (seconds)</text>
</g>
<text x="15.885" y="-108.69" transform="scale(1, -1)"
	style="font-family:Liberation Serif;font-variant:normal;font-weight:normal;font-style:normal;font-size:10px">32.50</text>
<text x="15.885" y="-329.4" transform="scale(1, -1)"
	style="font-family:Liberation Serif;font-variant:normal;font-weight:normal;font-style:normal;font-size:10px">37.50</text>
<text x="15.885" y="-550.11" transform="scale(1, -1)"
	style="font-family:Liberation Serif;font-variant:normal;font-weight:normal;font-style:normal;font-size:10px">42.50</text>
<path d="M40.885,110.98L48.885,110.98" style="fill:none;stroke:#000000;stroke-width:0.5" />
<path d="M40.885,331.69L48.885,331.69" style="fill:none;stroke:#000000;stroke-width:0.5" />
<path d="M40.885,552.4L48.885,552.4" style="fill:none;stroke:#000000;stroke-width:0.5" />
<path d="M44.885,66.838L48.885,66.838" style="fill:none;stroke:#000000;stroke-width:0.5" />
<path d="M44.885,155.12L48.885,155.12" style="fill:none;stroke:#000000;stroke-width:0.5" />
<path d="M44.885,199.26L48.885,199.26" style="fill:none;stroke:#000000;stroke-width:0.5" />
<path d="M44.885,243.4L48.885,243.4" style="fill:none;stroke:#000000;stroke-width:0.5" />
<path d="M44.885,287.55L48.885,287.55" style="fill:none;stroke:#000000;stroke-width:0.5" />
<path d="M44.885,375.83L48.885,375.83" style="fill:none;stroke:#000000;stroke-width:0.5" />
<path d="M44.885,419.97L48.885,419.97" style="fill:none;stroke:#000000;stroke-width:0.5" />
<path d="M44.885,464.11L48.885,464.11" style="fill:none;stroke:#000000;stroke-width:0.5" />
<path d="M44.885,508.25L48.885,508.25" style="fill:none;stroke:#000000;stroke-width:0.5" />
<path d="M48.885,42.709L48.885,560.21" style="fill:none;stroke:#000000;stroke-width:0.5" />
<path d="M57.135,560.21L181.26,374.68L305.38,194.92L429.5,42.709" style="fill:none;stroke:#000000" />
<path d="M59.635,560.21A2.5,2.5 0 1 1 54.635,560.21A2.5,2.5 0 1 1 59.635,560.21Z" style="fill:none;stroke:#000000;stroke-width:0.5" />
<path d="M183.76,374.68A2.5,2.5 0 1 1 178.76,374.68A2.5,2.5 0 1 1 183.76,374.68Z" style="fill:none;stroke:#000000;stroke-width:0.5" />
<path d="M307.88,194.92A2.5,2.5 0 1 1 302.88,194.92A2.5,2.5 0 1 1 307.88,194.92Z" style="fill:none;stroke:#000000;stroke-width:0.5" />
<path d="M432,42.709A2.5,2.5 0 1 1 427,42.709A2.5,2.5 0 1 1 432,42.709Z" style="fill:none;stroke:#000000;stroke-width:0.5" />
<path d="M412,45.301L432,45.301" style="fill:none;stroke:#000000" />
<path d="M424.5,45.301A2.5,2.5 0 1 1 419.5,45.301A2.5,2.5 0 1 1 424.5,45.301Z" style="fill:none;stroke:#000000;stroke-width:0.5" />
<text x="344.32" y="-42.813" transform="scale(1, -1)"
	style="font-family:Liberation Serif;font-variant:normal;font-weight:normal;font-style:normal;font-size:12px">Worker times</text>
</g>
</svg>
