<svg viewBox="0 0 600 100" xmlns="http://www.w3.org/2000/svg">
<rect fill="green" height="15" width="21" x="0" y="0"/>
<text font-size="5" x="21" y="5">
Task_0
</text>
<text font-size="5" x="21" y="10">
Start: 0
</text>
<text font-size="5" x="21" y="15">
End: 21
</text>
<rect fill="green" height="15" width="98" x="21" y="15"/>
<text font-size="5" x="119" y="20">
Task_1
</text>
<text font-size="5" x="119" y="25">
Start: 21
</text>
<text font-size="5" x="119" y="30">
End: 119
</text>
<rect fill="green" height="15" width="31" x="119" y="30"/>
<text font-size="5" x="150" y="35">
Task_2
</text>
<text font-size="5" x="150" y="40">
Start: 119
</text>
<text font-size="5" x="150" y="45">
End: 150
</text>
<rect fill="green" height="15" width="55" x="150" y="45"/>
<text font-size="5" x="205" y="50">
Task_3
</text>
<text font-size="5" x="205" y="55">
Start: 150
</text>
<text font-size="5" x="205" y="60">
End: 205
</text>
<rect fill="green" height="15" width="86" x="205" y="60"/>
<text font-size="5" x="291" y="65">
Task_4
</text>
<text font-size="5" x="291" y="70">
Start: 205
</text>
<text font-size="5" x="291" y="75">
End: 291
</text>
<rect fill="green" height="15" width="65" x="291" y="75"/>
<text font-size="5" x="356" y="80">
Task_5
</text>
<text font-size="5" x="356" y="85">
Start: 291
</text>
<text font-size="5" x="356" y="90">
End: 356
</text>
<rect fill="green" height="15" width="41" x="356" y="90"/>
<text font-size="5" x="397" y="95">
Task_6
</text>
<text font-size="5" x="397" y="100">
Start: 356
</text>
<text font-size="5" x="397" y="105">
End: 397
</text>
<rect fill="green" height="15" width="16" x="397" y="105"/>
<text font-size="5" x="413" y="110">
Task_7
</text>
<text font-size="5" x="413" y="115">
Start: 397
</text>
<text font-size="5" x="413" y="120">
End: 413
</text>
<rect fill="green" height="15" width="39" x="413" y="120"/>
<text font-size="5" x="452" y="125">
Task_8
</text>
<text font-size="5" x="452" y="130">
Start: 413
</text>
<text font-size="5" x="452" y="135">
End: 452
</text>
<rect fill="green" height="15" width="64" x="452" y="135"/>
<text font-size="5" x="516" y="140">
Task_9
</text>
<text font-size="5" x="516" y="145">
Start: 452
</text>
<text font-size="5" x="516" y="150">
End: 516
</text>
</svg>