<svg viewBox="0 0 600 100" xmlns="http://www.w3.org/2000/svg">
<rect fill="green" height="15" width="20" x="0" y="0"/>
<text font-size="5" x="20" y="5">
Task_0
</text>
<text font-size="5" x="20" y="10">
Start: 0
</text>
<text font-size="5" x="20" y="15">
End: 20
</text>
<rect fill="green" height="15" width="20" x="20" y="15"/>
<text font-size="5" x="40" y="20">
Task_1
</text>
<text font-size="5" x="40" y="25">
Start: 20
</text>
<text font-size="5" x="40" y="30">
End: 40
</text>
<rect fill="green" height="15" width="20" x="40" y="30"/>
<text font-size="5" x="60" y="35">
Task_2
</text>
<text font-size="5" x="60" y="40">
Start: 40
</text>
<text font-size="5" x="60" y="45">
End: 60
</text>
<rect fill="green" height="15" width="20" x="60" y="45"/>
<text font-size="5" x="80" y="50">
Task_3
</text>
<text font-size="5" x="80" y="55">
Start: 60
</text>
<text font-size="5" x="80" y="60">
End: 80
</text>
<rect fill="green" height="15" width="20" x="80" y="60"/>
<text font-size="5" x="100" y="65">
Task_4
</text>
<text font-size="5" x="100" y="70">
Start: 80
</text>
<text font-size="5" x="100" y="75">
End: 100
</text>
<rect fill="green" height="15" width="20" x="100" y="75"/>
<text font-size="5" x="120" y="80">
Task_5
</text>
<text font-size="5" x="120" y="85">
Start: 100
</text>
<text font-size="5" x="120" y="90">
End: 120
</text>
<rect fill="green" height="15" width="20" x="120" y="90"/>
<text font-size="5" x="140" y="95">
Task_6
</text>
<text font-size="5" x="140" y="100">
Start: 120
</text>
<text font-size="5" x="140" y="105">
End: 140
</text>
<rect fill="green" height="15" width="16" x="140" y="105"/>
<text font-size="5" x="156" y="110">
Task_7
</text>
<text font-size="5" x="156" y="115">
Start: 140
</text>
<text font-size="5" x="156" y="120">
End: 156
</text>
<rect fill="green" height="15" width="20" x="156" y="120"/>
<text font-size="5" x="176" y="125">
Task_8
</text>
<text font-size="5" x="176" y="130">
Start: 156
</text>
<text font-size="5" x="176" y="135">
End: 176
</text>
<rect fill="green" height="15" width="20" x="176" y="135"/>
<text font-size="5" x="196" y="140">
Task_9
</text>
<text font-size="5" x="196" y="145">
Start: 176
</text>
<text font-size="5" x="196" y="150">
End: 196
</text>
<rect fill="green" height="15" width="1" x="196" y="0"/>
<text font-size="5" x="197" y="5">
Task_0
</text>
<text font-size="5" x="197" y="10">
Start: 196
</text>
<text font-size="5" x="197" y="15">
End: 197
</text>
<rect fill="green" height="15" width="20" x="197" y="15"/>
<text font-size="5" x="217" y="20">
Task_1
</text>
<text font-size="5" x="217" y="25">
Start: 197
</text>
<text font-size="5" x="217" y="30">
End: 217
</text>
<rect fill="green" height="15" width="11" x="217" y="30"/>
<text font-size="5" x="228" y="35">
Task_2
</text>
<text font-size="5" x="228" y="40">
Start: 217
</text>
<text font-size="5" x="228" y="45">
End: 228
</text>
<rect fill="green" height="15" width="20" x="228" y="45"/>
<text font-size="5" x="248" y="50">
Task_3
</text>
<text font-size="5" x="248" y="55">
Start: 228
</text>
<text font-size="5" x="248" y="60">
End: 248
</text>
<rect fill="green" height="15" width="20" x="248" y="60"/>
<text font-size="5" x="268" y="65">
Task_4
</text>
<text font-size="5" x="268" y="70">
Start: 248
</text>
<text font-size="5" x="268" y="75">
End: 268
</text>
<rect fill="green" height="15" width="20" x="268" y="75"/>
<text font-size="5" x="288" y="80">
Task_5
</text>
<text font-size="5" x="288" y="85">
Start: 268
</text>
<text font-size="5" x="288" y="90">
End: 288
</text>
<rect fill="green" height="15" width="20" x="288" y="90"/>
<text font-size="5" x="308" y="95">
Task_6
</text>
<text font-size="5" x="308" y="100">
Start: 288
</text>
<text font-size="5" x="308" y="105">
End: 308
</text>
<rect fill="green" height="15" width="19" x="308" y="120"/>
<text font-size="5" x="327" y="125">
Task_8
</text>
<text font-size="5" x="327" y="130">
Start: 308
</text>
<text font-size="5" x="327" y="135">
End: 327
</text>
<rect fill="green" height="15" width="20" x="327" y="135"/>
<text font-size="5" x="347" y="140">
Task_9
</text>
<text font-size="5" x="347" y="145">
Start: 327
</text>
<text font-size="5" x="347" y="150">
End: 347
</text>
<rect fill="green" height="15" width="20" x="347" y="15"/>
<text font-size="5" x="367" y="20">
Task_1
</text>
<text font-size="5" x="367" y="25">
Start: 347
</text>
<text font-size="5" x="367" y="30">
End: 367
</text>
<rect fill="green" height="15" width="15" x="367" y="45"/>
<text font-size="5" x="382" y="50">
Task_3
</text>
<text font-size="5" x="382" y="55">
Start: 367
</text>
<text font-size="5" x="382" y="60">
End: 382
</text>
<rect fill="green" height="15" width="20" x="382" y="60"/>
<text font-size="5" x="402" y="65">
Task_4
</text>
<text font-size="5" x="402" y="70">
Start: 382
</text>
<text font-size="5" x="402" y="75">
End: 402
</text>
<rect fill="green" height="15" width="20" x="402" y="75"/>
<text font-size="5" x="422" y="80">
Task_5
</text>
<text font-size="5" x="422" y="85">
Start: 402
</text>
<text font-size="5" x="422" y="90">
End: 422
</text>
<rect fill="green" height="15" width="1" x="422" y="90"/>
<text font-size="5" x="423" y="95">
Task_6
</text>
<text font-size="5" x="423" y="100">
Start: 422
</text>
<text font-size="5" x="423" y="105">
End: 423
</text>
<rect fill="green" height="15" width="20" x="423" y="135"/>
<text font-size="5" x="443" y="140">
Task_9
</text>
<text font-size="5" x="443" y="145">
Start: 423
</text>
<text font-size="5" x="443" y="150">
End: 443
</text>
<rect fill="green" height="15" width="20" x="443" y="15"/>
<text font-size="5" x="463" y="20">
Task_1
</text>
<text font-size="5" x="463" y="25">
Start: 443
</text>
<text font-size="5" x="463" y="30">
End: 463
</text>
<rect fill="green" height="15" width="20" x="463" y="60"/>
<text font-size="5" x="483" y="65">
Task_4
</text>
<text font-size="5" x="483" y="70">
Start: 463
</text>
<text font-size="5" x="483" y="75">
End: 483
</text>
<rect fill="green" height="15" width="5" x="483" y="75"/>
<text font-size="5" x="488" y="80">
Task_5
</text>
<text font-size="5" x="488" y="85">
Start: 483
</text>
<text font-size="5" x="488" y="90">
End: 488
</text>
<rect fill="green" height="15" width="4" x="488" y="135"/>
<text font-size="5" x="492" y="140">
Task_9
</text>
<text font-size="5" x="492" y="145">
Start: 488
</text>
<text font-size="5" x="492" y="150">
End: 492
</text>
<rect fill="green" height="15" width="18" x="492" y="15"/>
<text font-size="5" x="510" y="20">
Task_1
</text>
<text font-size="5" x="510" y="25">
Start: 492
</text>
<text font-size="5" x="510" y="30">
End: 510
</text>
<rect fill="green" height="15" width="6" x="510" y="60"/>
<text font-size="5" x="516" y="65">
Task_4
</text>
<text font-size="5" x="516" y="70">
Start: 510
</text>
<text font-size="5" x="516" y="75">
End: 516
</text>
</svg>