<svg viewBox="0 0 600 100" xmlns="http://www.w3.org/2000/svg">
<rect fill="green" height="15" width="16" x="0" y="105"/>
<text font-size="5" x="16" y="110">
Task_7
</text>
<text font-size="5" x="16" y="115">
Start: 0
</text>
<text font-size="5" x="16" y="120">
End: 16
</text>
<rect fill="green" height="15" width="21" x="16" y="0"/>
<text font-size="5" x="37" y="5">
Task_0
</text>
<text font-size="5" x="37" y="10">
Start: 16
</text>
<text font-size="5" x="37" y="15">
End: 37
</text>
<rect fill="green" height="15" width="31" x="37" y="30"/>
<text font-size="5" x="68" y="35">
Task_2
</text>
<text font-size="5" x="68" y="40">
Start: 37
</text>
<text font-size="5" x="68" y="45">
End: 68
</text>
<rect fill="green" height="15" width="39" x="68" y="120"/>
<text font-size="5" x="107" y="125">
Task_8
</text>
<text font-size="5" x="107" y="130">
Start: 68
</text>
<text font-size="5" x="107" y="135">
End: 107
</text>
<rect fill="green" height="15" width="41" x="107" y="90"/>
<text font-size="5" x="148" y="95">
Task_6
</text>
<text font-size="5" x="148" y="100">
Start: 107
</text>
<text font-size="5" x="148" y="105">
End: 148
</text>
<rect fill="green" height="15" width="55" x="148" y="45"/>
<text font-size="5" x="203" y="50">
Task_3
</text>
<text font-size="5" x="203" y="55">
Start: 148
</text>
<text font-size="5" x="203" y="60">
End: 203
</text>
<rect fill="green" height="15" width="64" x="203" y="135"/>
<text font-size="5" x="267" y="140">
Task_9
</text>
<text font-size="5" x="267" y="145">
Start: 203
</text>
<text font-size="5" x="267" y="150">
End: 267
</text>
<rect fill="green" height="15" width="65" x="267" y="75"/>
<text font-size="5" x="332" y="80">
Task_5
</text>
<text font-size="5" x="332" y="85">
Start: 267
</text>
<text font-size="5" x="332" y="90">
End: 332
</text>
<rect fill="green" height="15" width="86" x="332" y="60"/>
<text font-size="5" x="418" y="65">
Task_4
</text>
<text font-size="5" x="418" y="70">
Start: 332
</text>
<text font-size="5" x="418" y="75">
End: 418
</text>
<rect fill="green" height="15" width="98" x="418" y="15"/>
<text font-size="5" x="516" y="20">
Task_1
</text>
<text font-size="5" x="516" y="25">
Start: 418
</text>
<text font-size="5" x="516" y="30">
End: 516
</text>
</svg>